<svg height="512pt" viewBox="0 0 512 512" width="512pt" xmlns="http://www.w3.org/2000/svg"><path d="m354.699219 343-27 18h-139.5l-30.898438-18 4.5-58.199219 37.800781-13.800781h122.996094l27.601563 13.800781zm0 0" fill="#ececf1"/><path d="m327.699219 361h-71.699219v-90h66.597656l27.601563 13.800781 4.5 58.199219zm0 0" fill="#d1d6f2"/><path d="m76 151h-30c-8.289062 0-15-6.710938-15-15s6.710938-15 15-15h30c8.289062 0 15 6.710938 15 15s-6.710938 15-15 15zm0 0" fill="#ffd400"/><path d="m466 151h-30c-8.289062 0-15-6.710938-15-15s6.710938-15 15-15h30c8.289062 0 15 6.710938 15 15s-6.710938 15-15 15zm0 0" fill="#fdbf00"/><path d="m31.144531 248.5c-4.144531-7.179688-1.683593-16.347656 5.496094-20.492188l51.957031-30c7.132813-4.132812 16.347656-1.6875 20.492188 5.492188 4.144531 7.179688 1.683594 16.347656-5.492188 20.492188l-51.957031 30c-7.070313 4.085937-16.304687 1.761718-20.496094-5.492188zm0 0" fill="#ffd400"/><path d="m402.910156 68.5c-4.148437-7.179688-1.6875-16.347656 5.492188-20.492188l51.957031-30c7.148437-4.160156 16.332031-1.699218 20.492187 5.492188 4.148438 7.179688 1.6875 16.347656-5.492187 20.492188l-51.957031 30c-7.070313 4.085937-16.304688 1.761718-20.492188-5.492188zm0 0" fill="#fdbf00"/><path d="m88.597656 73.992188-51.957031-30c-7.179687-4.144532-9.640625-13.3125-5.492187-20.492188 4.144531-7.191406 13.328124-9.652344 20.492187-5.492188l51.957031 30c7.179688 4.144532 9.640625 13.3125 5.492188 20.492188-4.1875 7.253906-13.421875 9.578125-20.492188 5.492188zm0 0" fill="#ffd400"/><path d="m460.359375 253.992188-51.957031-30c-7.179688-4.144532-9.640625-13.3125-5.492188-20.492188 4.160156-7.179688 13.3125-9.625 20.492188-5.492188l51.957031 30c7.179687 4.144532 9.640625 13.3125 5.492187 20.492188-4.1875 7.253906-13.421874 9.578125-20.492187 5.492188zm0 0" fill="#fdbf00"/><path d="m196 76h120v90h-120zm0 0" fill="#ffd400"/><path d="m256 76h60v90h-60zm0 0" fill="#fdbf00"/><path d="m181 84.402344v81.597656c0 8.398438 6.597656 15 15 15h120c8.402344 0 15-6.601562 15-15v-81.597656zm60 66.597656h-30v-60h30zm60 0h-30v-60h30zm0 0" fill="#485c8c"/><g fill="#f06292"><path d="m330.398438 68.402344h-148.796876c3.597657-38.101563 35.398438-68.402344 74.398438-68.402344 20.398438 0 39 7.800781 53.101562 22.199219 12.597657 12.300781 19.796876 28.5 21.296876 46.203125zm0 0"/><path d="m358.898438 405.800781c.601562 9-6.300782 16.199219-15 16.199219h-175.796876c-8.402343 0-15-6.601562-15-15l4.199219-64h197.398438zm0 0"/><path d="m350.199219 284.800781h-188.398438l4.199219-60c.601562-7.800781 7.199219-13.800781 15-13.800781h150c7.800781 0 14.398438 6 15 13.800781zm0 0"/></g><path d="m330.398438 68.402344h-74.398438v-68.402344c20.398438 0 39 7.800781 53.101562 22.199219 12.597657 12.300781 19.796876 28.5 21.296876 46.203125zm0 0" fill="#d81b60"/><path d="m350.199219 284.800781h-94.199219v-73.800781h75c7.800781 0 14.398438 6 15 13.800781zm0 0" fill="#d81b60"/><path d="m343.898438 422h-87.898438v-79h98.699219l4.199219 62.800781c.601562 9-6.300782 16.199219-15 16.199219zm0 0" fill="#d81b60"/><path d="m256 84.402344v96.597656h60c8.402344 0 15-6.601562 15-15v-81.597656zm45 66.597656h-30v-60h30zm0 0" fill="#2d344a"/><path d="m346 151h-180c-8.402344 0-15 6.597656-15 15v60c0 8.398438 6.597656 15 15 15h180c8.402344 0 15-6.601562 15-15v-60c0-8.402344-6.597656-15-15-15zm0 0" fill="#ececf1"/><path d="m355.902344 76c0 8.402344-6.601563 15-15 15h-169.804688c-8.398437 0-15-6.597656-15-15s6.601563-15 15-15h169.800782c8.402343 0 15.003906 6.597656 15.003906 15zm0 0" fill="#485c8c"/><path d="m346 241h-90v-90h90c8.402344 0 15 6.597656 15 15v60c0 8.398438-6.597656 15-15 15zm0 0" fill="#d1d6f2"/><path d="m355.902344 76c0 8.402344-6.601563 15-15 15h-84.902344v-30h84.902344c8.398437 0 15 6.597656 15 15zm0 0" fill="#2d344a"/><path d="m391 437v57.300781h-270v-57.300781c0-24.902344 20.097656-45 45-45h180c24.902344 0 45 20.097656 45 45zm0 0" fill="#485c8c"/><path d="m391 437v57.300781h-135v-102.300781h90c24.902344 0 45 20.097656 45 45zm0 0" fill="#2d344a"/><path d="m512 497c0 8.398438-6.597656 15-15 15h-31c-11.699219 0-21.898438-4.5-30-11.699219-8.101562 7.199219-18.300781 11.699219-30 11.699219h-60c-11.699219 0-21.898438-4.5-30-11.699219-8.101562 7.199219-18.300781 11.699219-30 11.699219h-60c-11.699219 0-21.898438-4.5-30-11.699219-8.101562 7.199219-18.300781 11.699219-30 11.699219h-60c-11.699219 0-21.898438-4.5-30-11.699219-8.101562 7.199219-18.300781 11.699219-30 11.699219h-31c-8.402344 0-15-6.601562-15-15 0-8.402344 6.597656-15 15-15h31c8.402344 0 15-6.601562 15-15 0-8.402344 6.597656-15 15-15s15 6.597656 15 15c0 8.398438 6.597656 15 15 15h60c8.402344 0 15-6.601562 15-15 0-8.402344 6.597656-15 15-15s15 6.597656 15 15c0 8.398438 6.597656 15 15 15h60c8.402344 0 15-6.601562 15-15 0-8.402344 6.597656-15 15-15s15 6.597656 15 15c0 8.398438 6.597656 15 15 15h60c8.402344 0 15-6.601562 15-15 0-8.402344 6.597656-15 15-15s15 6.597656 15 15c0 8.398438 6.597656 15 15 15h31c8.402344 0 15 6.597656 15 15zm0 0" fill="#7ed8f6"/><path d="m512 497c0 8.398438-6.597656 15-15 15h-31c-11.699219 0-21.898438-4.5-30-11.699219-8.101562 7.199219-18.300781 11.699219-30 11.699219h-60c-11.699219 0-21.898438-4.5-30-11.699219-8.101562 7.199219-18.300781 11.699219-30 11.699219h-30v-30h30c8.402344 0 15-6.601562 15-15 0-8.402344 6.597656-15 15-15s15 6.597656 15 15c0 8.398438 6.597656 15 15 15h60c8.402344 0 15-6.601562 15-15 0-8.402344 6.597656-15 15-15s15 6.597656 15 15c0 8.398438 6.597656 15 15 15h31c8.402344 0 15 6.597656 15 15zm0 0" fill="#6aa9ff"/></svg>