<svg height="511pt" viewBox="1 0 511.99975 511" width="511pt" xmlns="http://www.w3.org/2000/svg"><path d="m196.972656.5c-107.386718 0-196.972656 89.585938-196.972656 196.96875 0 42.292969 13.496094 82.789062 38.996094 116.683594l145.976562 192.269531c2.699219 3.902344 7.199219 6 12 6 4.796875 0 9.296875-2.097656 12-6l143.976563-192.269531c25.496093-33.894532 38.996093-74.390625 38.996093-116.683594-.003906-107.382812-87.589843-196.96875-194.972656-196.96875zm74.285156 271.257812c-19.792968 19.796876-46.175781 30.695313-74.285156 30.695313-58.441406 0-105.984375-47.09375-105.984375-104.984375 0-28.226562 11.113281-55.003906 31.300781-75.394531 20.167969-20.367188 46.6875-31.585938 74.683594-31.585938 27.871094 0 54.179688 11.175781 74.070313 31.480469 19.933593 20.339844 30.914062 47.152344 30.914062 75.5 0 28.113281-10.902343 54.496094-30.699219 74.289062zm0 0" fill="#ff6c6c"/><path d="m196.972656.5v89.988281c27.871094 0 54.179688 11.175781 74.070313 31.480469 19.933593 20.339844 30.914062 47.152344 30.914062 75.5 0 28.113281-10.902343 54.496094-30.699219 74.289062-19.792968 19.796876-46.175781 30.695313-74.285156 30.695313v209.972656c4.796875 0 9.296875-2.101562 11.996094-6l143.980469-192.269531c25.496093-33.898438 38.992187-74.390625 38.992187-116.683594 0-107.386718-87.585937-196.972656-194.96875-196.972656zm0 0" fill="#ff4949"/><path d="m402.4375 402.9375c-5.699219 6-15.292969 6-20.992188 0l-41.394531-41.390625c-6-5.699219-6-15.296875 0-20.996094 5.699219-6 15.296875-6 20.996094 0l41.390625 41.390625c6 5.703125 6 15.296875 0 20.996094zm0 0" fill="#c6e2e7"/><path d="m402.4375 402.9375c-5.699219 6-15.292969 6-20.992188 0l-41.394531-41.390625c-6-5.699219-6-15.296875 0-20.996094zm0 0" fill="#8ebac5"/><path d="m498.726562 435.636719-74.988281-74.992188c-5.699219-5.996093-15.300781-5.996093-21.300781 0l-20.992188 21.300781-21.296874 20.992188c-6 6-6 15.601562 0 21.300781l74.988281 74.988281c17.398437 17.699219 46.191406 17.398438 63.589843 0 17.699219-17.398437 17.699219-46.195312 0-63.589843zm0 0" fill="#6e6e6e"/><path d="m498.726562 499.226562c-17.398437 17.398438-46.191406 17.699219-63.589843 0l-74.988281-74.988281c-6-5.699219-6-15.300781 0-21.300781l21.296874-20.996094zm0 0" fill="#444"/><path d="m361.046875 361.546875c-40.796875 41.09375-107.382813 41.09375-148.175781 0-41.097656-40.796875-41.097656-107.382813 0-148.175781 40.792968-41.097656 107.382812-41.097656 148.175781 0 41.09375 40.792968 41.09375 107.378906 0 148.175781zm0 0" fill="#5a5a5a"/><path d="m361.046875 361.546875c-40.796875 41.09375-107.382813 41.09375-148.175781 0-41.097656-40.796875-41.097656-107.382813 0-148.175781zm0 0" fill="#444"/><path d="m340.050781 340.550781c-29.398437 29.09375-76.789062 29.09375-106.183593 0-29.097657-29.398437-29.097657-76.789062 0-106.1875 29.394531-29.09375 76.785156-29.09375 106.183593 0 29.09375 29.398438 29.09375 76.789063 0 106.1875zm0 0" fill="#deecf1"/><path d="m340.050781 340.550781c-29.398437 29.09375-76.789062 29.09375-106.183593 0-29.097657-29.398437-29.097657-76.789062 0-106.1875zm0 0" fill="#c6e2e7"/></svg>