<svg height="512pt" viewBox="0 -96 512 512" width="512pt" xmlns="http://www.w3.org/2000/svg"><path d="m202.644531 90-8.574219 60.003906h42.160157v-60.003906zm0 0" fill="#96c8eb" fill-rule="evenodd"/><path d="m236.230469 90v60.003906h83.128906l-24.933594-58.183594c-.203125-.472656-.507812-1.167968-.835937-1.820312zm0 0" fill="#96c8eb" fill-rule="evenodd"/><path d="m467 151.253906-115-1.25-25.71875-60.003906-4.285156-9.996094c-4.496094-10.496094-11.652344-20.003906-27.8125-20.003906h-74.183594c-11 0-18.445312 9.109375-20 20.003906l-1.429688 9.996094h95.015626c.332031.652344.636718 1.347656.839843 1.820312l24.933594 58.183594h-129.359375l-75 1.25c-11.023438.179688-20 10.121094-20 22.5v42.945313c7.355469-4.257813 15.890625-6.699219 25-6.699219 13.632812 0 25.988281 5.464844 35.007812 14.3125 9.246094 9.074219 14.992188 21.707031 14.992188 35.6875h182c0-27.613281 22.386719-50 50-50 13.628906 0 25.972656 5.46875 34.992188 14.3125 1.804687 1.773438 3.488281 3.664062 5.011718 5.691406h44.996094v-56.25c0-12.378906-8.988281-22.382812-20-22.5zm0 0" fill="#ff9d21"/><path d="m58 230.003906h-15v15c0 8.246094 6.75 14.996094 15 14.996094h12c0-11.253906 3.722656-21.644531 9.996094-29.996094zm0 0" fill="#ffdaae" fill-rule="evenodd"/><path d="m442.003906 230.003906c6.273438 8.351563 9.996094 18.742188 9.996094 29.996094h35c8.25 0 15-6.75 15-14.996094v-15zm0 0" fill="#ffdaae" fill-rule="evenodd"/><path d="m421.996094 260c0 11.042969-8.953125 19.996094-19.996094 19.996094s-19.996094-8.953125-19.996094-19.996094 8.953125-19.996094 19.996094-19.996094 19.996094 8.953125 19.996094 19.996094zm0 0" fill="#ffdaae" fill-rule="evenodd"/><path d="m139.992188 260c0 11.042969-8.949219 19.996094-19.992188 19.996094s-19.996094-8.953125-19.996094-19.996094 8.953125-19.996094 19.996094-19.996094 19.992188 8.953125 19.992188 19.996094zm0 0" fill="#ffdaae" fill-rule="evenodd"/><path d="m419.507812 213.152344c-14.167968 5.292968-25.285156 16.828125-30.015624 31.261718 3.425781-2.753906 7.769531-4.410156 12.507812-4.410156 11.039062 0 19.992188 8.953125 19.992188 19.996094s-8.953126 19.992188-19.992188 19.992188c-4.738281 0-9.082031-1.652344-12.511719-4.40625 4.734375 14.429687 15.847657 25.964843 30.011719 31.257812 18.980469-7.09375 32.5-25.386719 32.5-46.84375 0-11.253906-3.722656-21.644531-9.996094-29.996094-5.6875-7.574218-13.476562-13.476562-22.496094-16.851562zm0 0" fill="#986e62" fill-rule="evenodd"/><path d="m137.492188 213.152344c-9.019532 3.375-16.808594 9.277344-22.496094 16.851562-3.242188 4.3125-5.792969 9.175782-7.511719 14.414063 3.425781-2.753907 7.773437-4.414063 12.515625-4.414063 11.042969 0 19.992188 8.953125 19.992188 19.996094s-8.949219 19.996094-19.992188 19.996094c-4.738281 0-9.082031-1.65625-12.507812-4.410156 4.730468 14.429687 15.835937 25.96875 29.996093 31.261718 18.988281-7.089844 32.511719-25.386718 32.511719-46.847656 0-21.457031-13.523438-39.753906-32.507812-46.847656zm0 0" fill="#986e62" fill-rule="evenodd"/><path d="m221.230469 60h30v-34.996094c0-8.253906-6.75-15.003906-15-15.003906s-15 6.75-15 15.003906zm0 0" fill="#ffdaae" fill-rule="evenodd"/><g fill="#000001"><path d="m502 220.003906h-5v-46.25c0-17.746094-13.410156-32.324218-29.890625-32.5l-108.484375-1.179687-27.433594-64.007813c-2.761718-6.449218-11.171875-26.066406-37.007812-26.066406h-32.953125v-24.996094c0-13.789062-11.210938-25.003906-25-25.003906-13.785157 0-25 11.214844-25 25.003906v24.996094h-61.230469c-15.199219 0-27.496094 11.757812-29.898438 28.589844l-8.796874 61.558594-66.472657 1.105468c-16.449219.269532-29.832031 14.851563-29.832031 32.5v46.25h-5c-5.523438 0-10 4.476563-10 10v15c0 13.78125 11.214844 24.996094 25 24.996094h35.847656c1.925782 11.410156 7.070313 21.734375 14.480469 30h-36.359375c-5.523438 0-10 4.476562-10 10s4.476562 10 10 10h81.03125.003906c29.671875 0 54.367188-21.660156 59.144532-50h163.699218c4.777344 28.339844 29.476563 50 59.152344 50h71.03125c5.523438 0 10-4.476562 10-10s-4.476562-10-10-10h-26.359375c7.410156-8.265625 12.554687-18.589844 14.476563-30h25.847656c13.789062 0 25.003906-11.214844 25.003906-24.996094v-15c0-5.523437-4.476562-10-10-10zm-270.769531-195c0-2.714844 2.289062-5.003906 5.003906-5.003906 2.707031 0 4.996094 2.289062 4.996094 5.003906v24.996094h-10zm-196.230469 174.996094h6.613281c5.523438 0 10-4.476562 10-10s-4.476562-10-10-10h-6.613281v-6.246094c0-6.800781 4.558594-12.410156 10.164062-12.503906l75-1.246094c4.914063-.082031 9.039063-3.722656 9.734376-8.585937l10-70c.8125-5.683594 4.25-11.417969 10.101562-11.417969h144.183594c9.21875 0 14.269531 3.777344 18.621094 13.941406l30.003906 70c1.558594 3.640625 5.121094 6.019532 9.082031 6.0625l115 1.246094c5.574219.0625 10.109375 5.667969 10.109375 12.503906v6.246094h-6.613281c-5.523438 0-10 4.476562-10 10s4.476562 10 10 10h6.613281v20.003906h-30.324219c-10.992187-12.269531-26.945312-20.003906-44.675781-20.003906-29.675781 0-54.375 21.660156-59.152344 50h-163.699218c-4.777344-28.339844-29.472657-50-59.144532-50-17.730468 0-33.6875 7.734375-44.679687 20.003906h-40.324219zm-15 45.003906v-5h43.4375c-1.140625 3.214844-2.007812 6.558594-2.589844 9.996094h-35.847656c-2.710938 0-5-2.289062-5-4.996094zm100.003906 54.996094c-22.058594 0-40.003906-17.945312-40.003906-40s17.945312-40 40.003906-40c22.054688 0 39.996094 17.945312 39.996094 40s-17.941406 40-39.996094 40zm241.996094-40c0-22.054688 17.941406-40 40-40 22.054688 0 40 17.945312 40 40s-17.945312 40-40 40c-22.058594 0-40-17.945312-40-40zm130-14.996094c0 2.707032-2.289062 4.996094-5 4.996094h-25.851562c-.578126-3.4375-1.449219-6.78125-2.589844-9.996094h33.441406zm0 0"/><path d="m402 230.003906c-16.539062 0-29.992188 13.457032-29.992188 29.996094s13.453126 29.996094 29.992188 29.996094 29.992188-13.457032 29.992188-29.996094-13.453126-29.996094-29.992188-29.996094zm0 39.992188c-5.511719 0-9.992188-4.484375-9.992188-9.996094s4.480469-9.996094 9.992188-9.996094 9.992188 4.484375 9.992188 9.996094-4.480469 9.996094-9.992188 9.996094zm0 0"/><path d="m120.003906 230.003906c-16.542968 0-29.996094 13.457032-29.996094 29.996094s13.453126 29.996094 29.996094 29.996094c16.535156 0 29.992188-13.457032 29.992188-29.996094s-13.457032-29.996094-29.992188-29.996094zm0 39.992188c-5.515625 0-9.996094-4.484375-9.996094-9.996094s4.480469-9.996094 9.996094-9.996094c5.507813 0 9.992188 4.484375 9.992188 9.996094s-4.484375 9.996094-9.992188 9.996094zm0 0"/><path d="m150.304688 160.003906h169.058593c3.359375 0 6.496094-1.6875 8.347657-4.496094 1.851562-2.808593 2.167968-6.355468.84375-9.445312l-24.929688-58.164062c-.257812-.601563-.652344-1.507813-1.121094-2.433594-1.707031-3.351563-5.152344-5.464844-8.914062-5.464844h-134.714844c-4.976562 0-9.195312 3.660156-9.898438 8.585938l-8.570312 60.003906c-.410156 2.871094.445312 5.773437 2.34375 7.964844 1.898438 2.191406 4.652344 3.449218 7.554688 3.449218zm153.890624-20h-57.964843v-40.003906h40.820312zm-136.648437-40.003906h58.6875v40.003906h-64.398437zm0 0"/><path d="m10.234375 300h-.234375c-5.523438 0-10 4.476562-10 10s4.476562 10 10 10h.234375c5.523437 0 10-4.476562 10-10s-4.476563-10-10-10zm0 0"/><path d="m502 300h-.234375c-5.523437 0-10 4.476562-10 10s4.476563 10 10 10h.234375c5.523438 0 10-4.476562 10-10s-4.476562-10-10-10zm0 0"/><path d="m228.5 200h15c5.523438 0 10-4.476562 10-10s-4.476562-10-10-10h-15c-5.523438 0-10 4.476562-10 10s4.476562 10 10 10zm0 0"/><path d="m268.496094 210.003906h-14.996094c-5.523438 0-10 4.476563-10 10 0 5.519532 4.476562 10 10 10h14.996094c5.523437 0 10-4.480468 10-10 0-5.523437-4.476563-10-10-10zm0 0"/><path d="m203.5 190c0-5.523438-4.476562-10-10-10h-15c-5.523438 0-10 4.476562-10 10s4.476562 10 10 10h15c5.523438 0 10-4.476562 10-10zm0 0"/><path d="m218.5 210.003906h-15c-5.523438 0-10 4.476563-10 10 0 5.519532 4.476562 10 10 10h15c5.523438 0 10-4.480468 10-10 0-5.523437-4.476562-10-10-10zm0 0"/><path d="m303.5 190c0-5.523438-4.476562-10-10-10h-15c-5.523438 0-10 4.476562-10 10s4.476562 10 10 10h15c5.523438 0 10-4.476562 10-10zm0 0"/><path d="m318.496094 210.003906h-15c-5.519532 0-10 4.476563-10 10 0 5.519532 4.480468 10 10 10h15c5.523437 0 10-4.480468 10-10 0-5.523437-4.476563-10-10-10zm0 0"/><path d="m318.5 190c0 5.523438 4.476562 10 10 10h14.996094c5.523437 0 10-4.476562 10-10s-4.476563-10-10-10h-14.996094c-5.523438 0-10 4.476562-10 10zm0 0"/></g></svg>